<svg width="103" height="93" viewBox="0 0 103 93" fill="none" xmlns="http://www.w3.org/2000/svg">
<path d="M98.625 50.3333V38.6667C98.6245 38.1552 98.4895 37.6528 98.2335 37.21C97.9775 36.7672 97.6096 36.3995 97.1667 36.1437L86.9583 30.3104C86.5149 30.0544 86.012 29.9196 85.5 29.9196C84.988 29.9196 84.4851 30.0544 84.0417 30.3104L73.8333 36.1437C73.3904 36.3995 73.0225 36.7672 72.7665 37.21C72.5105 37.6528 72.3755 38.1552 72.375 38.6667V50.3333C72.3755 50.8448 72.5105 51.3471 72.7665 51.79C73.0225 52.2328 73.3904 52.6005 73.8333 52.8562L84.0417 58.6896C84.4851 58.9456 84.988 59.0803 85.5 59.0803C86.012 59.0803 86.5149 58.9456 86.9583 58.6896L97.1667 52.8562C97.6096 52.6005 97.9775 52.2328 98.2335 51.79C98.4895 51.3471 98.6245 50.8448 98.625 50.3333Z" stroke="#FD3A69" stroke-width="2" stroke-linecap="round" stroke-linejoin="round"/>
<path d="M81.625 76.3333V64.6667C81.6245 64.1552 81.4895 63.6528 81.2335 63.21C80.9775 62.7672 80.6096 62.3995 80.1667 62.1437L69.9583 56.3104C69.5149 56.0544 69.012 55.9196 68.5 55.9196C67.988 55.9196 67.4851 56.0544 67.0417 56.3104L56.8333 62.1437C56.3904 62.3995 56.0225 62.7672 55.7665 63.21C55.5105 63.6528 55.3755 64.1552 55.375 64.6667V76.3333C55.3755 76.8448 55.5105 77.3471 55.7665 77.79C56.0225 78.2328 56.3904 78.6005 56.8333 78.8562L67.0417 84.6896C67.4851 84.9456 67.988 85.0803 68.5 85.0803C69.012 85.0803 69.5149 84.9456 69.9583 84.6896L80.1667 78.8562C80.6096 78.6005 80.9775 78.2328 81.2335 77.79C81.4895 77.3471 81.6245 76.8448 81.625 76.3333Z" stroke="#FFC85C" stroke-width="2" stroke-linecap="round" stroke-linejoin="round"/>
<path d="M30.625 50.3333V38.6667C30.6245 38.1552 30.4895 37.6528 30.2335 37.21C29.9775 36.7672 29.6096 36.3995 29.1667 36.1437L18.9583 30.3104C18.5149 30.0544 18.012 29.9196 17.5 29.9196C16.988 29.9196 16.4851 30.0544 16.0417 30.3104L5.83333 36.1437C5.39038 36.3995 5.02247 36.7672 4.76651 37.21C4.51054 37.6528 4.37552 38.1552 4.375 38.6667V50.3333C4.37552 50.8448 4.51054 51.3471 4.76651 51.79C5.02247 52.2328 5.39038 52.6005 5.83333 52.8562L16.0417 58.6896C16.4851 58.9456 16.988 59.0803 17.5 59.0803C18.012 59.0803 18.5149 58.9456 18.9583 58.6896L29.1667 52.8562C29.6096 52.6005 29.9775 52.2328 30.2335 51.79C30.4895 51.3471 30.6245 50.8448 30.625 50.3333Z" stroke="#8BCDCD" stroke-width="2" stroke-linecap="round" stroke-linejoin="round"/>
<path d="M64.625 50.3333V38.6667C64.6245 38.1552 64.4895 37.6528 64.2335 37.21C63.9775 36.7672 63.6096 36.3995 63.1667 36.1437L52.9583 30.3104C52.5149 30.0544 52.012 29.9196 51.5 29.9196C50.988 29.9196 50.4851 30.0544 50.0417 30.3104L39.8333 36.1437C39.3904 36.3995 39.0225 36.7672 38.7665 37.21C38.5105 37.6528 38.3755 38.1552 38.375 38.6667V50.3333C38.3755 50.8448 38.5105 51.3471 38.7665 51.79C39.0225 52.2328 39.3904 52.6005 39.8333 52.8562L50.0417 58.6896C50.4851 58.9456 50.988 59.0803 51.5 59.0803C52.012 59.0803 52.5149 58.9456 52.9583 58.6896L63.1667 52.8562C63.6096 52.6005 63.9775 52.2328 64.2335 51.79C64.4895 51.3471 64.6245 50.8448 64.625 50.3333Z" stroke="#F1E189" stroke-width="2" stroke-linecap="round" stroke-linejoin="round"/>
<path d="M47.625 23.3333V11.6667C47.6245 11.1552 47.4895 10.6528 47.2335 10.21C46.9775 9.7672 46.6096 9.39948 46.1667 9.14374L35.9583 3.31041C35.5149 3.05442 35.012 2.91965 34.5 2.91965C33.988 2.91965 33.4851 3.05442 33.0417 3.31041L22.8333 9.14374C22.3904 9.39948 22.0225 9.7672 21.7665 10.21C21.5105 10.6528 21.3755 11.1552 21.375 11.6667V23.3333C21.3755 23.8448 21.5105 24.3471 21.7665 24.79C22.0225 25.2328 22.3904 25.6005 22.8333 25.8562L33.0417 31.6896C33.4851 31.9456 33.988 32.0803 34.5 32.0803C35.012 32.0803 35.5149 31.9456 35.9583 31.6896L46.1667 25.8562C46.6096 25.6005 46.9775 25.2328 47.2335 24.79C47.4895 24.3471 47.6245 23.8448 47.625 23.3333Z" stroke="#ADCE74" stroke-width="2" stroke-linecap="round" stroke-linejoin="round"/>
</svg>
